{"title":"Breaking Bad S4 Español Spanish","uid":8988710,"size":22275686228,"categoryP":"video","categoryS":"hd___tv_shows","magnet":"?xt=urn:btih:043ff6dac5ceb55f52a912497a69b62e5ca952a9&amp;dn=Breaking+Bad+S4+Espa%26ntilde%3Bol+Spanish&amp;tr=udp%3A%2F%2Ftracker.openbittorrent.com%3A80&amp;tr=udp%3A%2F%2Fopen.demonii.com%3A1337&amp;tr=udp%3A%2F%2Ftracker.coppersurfer.tk%3A6969&amp;tr=udp%3A%2F%2Fexodus.desync.com%3A6969","seeders":6,"leechers":0,"uploader":"sichi69","files":-1,"time":1380740200,"description":"General\nUnique ID                                : 225122683166066855101023517610640251180 (0xA95D0D3A0CF85A5586A5EE6EB101992C)\nComplete name                            : F:TorrentBreaking Bad S4Breaking Bad 4x01- Box Cutter [HDTV][720p][Dual + Subs].mkv\nFormat                                   : Matroska\nFormat version                           : Version 1\nFile size                                : 1.52 GiB\nDuration                                 : 47mn 9s\nOverall bit rate                         : 4 628 Kbps\nMovie name                               : Breaking Bad S04E01 by TeddyBlue\nEncoded date                             : UTC 2011-10-10 23:41:48\nWriting application                      : mkvmerge v2.1.0 ('Another Place To Fall') built on Aug 19 2007 13:40:07\nWriting library                          : libebml v0.7.7 + libmatroska v0.8.1\n\nVideo\nID                                       : 1\nFormat                                   : AVC\nFormat/Info                              : Advanced Video Codec\nFormat profile                           : &lt;a class=&quot;__cf_email__&quot; href=&quot;/cdn-cgi/l/email-protection&quot; data-cfemail=&quot;f2ba9b959ab2bec1dcc3&quot;&gt;[email&amp;#160;protected]&lt;/a&gt;&lt;script cf-hash='f9e31' type=&quot;text/javascript&quot;&gt;\n/* &lt;![CDATA[ */!function(){try{var t=&quot;currentScript&quot;in document?document.currentScript:function(){for(var t=document.getElementsByTagName(&quot;script&quot;),e=t.length;e--;)if(t[e].getAttribute(&quot;cf-hash&quot;))return t[e]}();if(t&amp;&amp;t.previousSibling){var e,r,n,i,c=t.previousSibling,a=c.getAttribute(&quot;data-cfemail&quot;);if(a){for(e=&quot;&quot;,r=parseInt(a.substr(0,2),16),n=2;a.length-n;n+=2)i=parseInt(a.substr(n,2),16)^r,e+=String.fromCharCode(i);e=document.createTextNode(e),c.parentNode.replaceChild(e,c)}}}catch(u){}}();/* ]]&gt; */&lt;/script&gt;\nFormat settings, CABAC                   : No\nFormat settings, ReFrames                : 2 frames\nCodec ID                                 : V_MPEG4/ISO/AVC\nDuration                                 : 47mn 9s\nBit rate                                 : 3 960 Kbps\nWidth                                    : 1 280 pixels\nHeight                                   : 720 pixels\nDisplay aspect ratio                     : 16:9\nFrame rate mode                          : Constant\nFrame rate                               : 23.976 fps\nColor space                              : YUV\nChroma subsampling                       : 4:2:0\nBit depth                                : 8 bits\nScan type                                : Progressive\nBits/(Pixel*Frame)                       : 0.179\nStream size                              : 1.30 GiB (86%)\nTitle                                    : Breaking Bad 4x01 - Box Cutter(montaje dharma21&amp;batusizoe)\nLanguage                                 : Spanish\nDefault                                  : Yes\nForced                                   : No\nColor primaries                          : BT.709\nTransfer characteristics                 : BT.709\nMatrix coefficients                      : BT.709\n\nAudio #1\nID                                       : 2\nFormat                                   : AC-3\nFormat/Info                              : Audio Coding 3\nMode extension                           : CM (complete main)\nFormat settings, Endianness              : Big\nCodec ID                                 : A_AC3\nDuration                                 : 47mn 9s\nBit rate mode                            : Constant\nBit rate                                 : 192 Kbps\nChannel(s)                               : 2 channels\nChannel positions                        : Front: L R\nSampling rate                            : 48.0 KHz\nBit depth                                : 16 bits\nCompression mode                         : Lossy\nStream size                              : 64.8 MiB (4%)\nTitle                                    : Breaking Bad 4x01 - Box Cutter(montaje dharma21&amp;batusizoe)\nLanguage                                 : Spanish\nDefault                                  : Yes\nForced                                   : No\n\nAudio #2\nID                                       : 3\nFormat                                   : AC-3\nFormat/Info                              : Audio Coding 3\nMode extension                           : CM (complete main)\nFormat settings, Endianness              : Big\nCodec ID                                 : A_AC3\nDuration                                 : 47mn 9s\nBit rate mode                            : Constant\nBit rate                                 : 384 Kbps\nChannel(s)                               : 6 channels\nChannel positions                        : Front: L C R, Side: L R, LFE\nSampling rate                            : 48.0 KHz\nBit depth                                : 16 bits\nCompression mode                         : Lossy\nStream size                              : 130 MiB (8%)\nTitle                                    : Breaking Bad 4x01 - Box Cutter(montaje dharma21&amp;batusizoe)\nLanguage                                 : English\nDefault                                  : No\nForced                                   : No\n\nText\nID                                       : 4\nFormat                                   : SSA\nCodec ID                                 : S_TEXT/SSA\nCodec ID/Info                            : Sub Station Alpha\nCompression mode                         : Lossless\nTitle                                    : Breaking Bad 4x01 - Box Cutter(montaje dharma21&amp;batusizoe)\nLanguage                                 : Spanish\nDefault                                  : Yes\nForced                                   : No\n","torrent":{"xt":"urn:btih:043ff6dac5ceb55f52a912497a69b62e5ca952a9","amp;dn":"Breaking+Bad+S4+Espa%26ntilde%3Bol+Spanish","amp;tr":["udp%3A%2F%2Ftracker.openbittorrent.com%3A80","udp%3A%2F%2Fopen.demonii.com%3A1337","udp%3A%2F%2Ftracker.coppersurfer.tk%3A6969","udp%3A%2F%2Fexodus.desync.com%3A6969"],"infoHash":"043ff6dac5ceb55f52a912497a69b62e5ca952a9","infoHashBuffer":{"type":"Buffer","data":[4,63,246,218,197,206,181,95,82,169,18,73,122,105,182,46,92,169,82,169]},"announce":[],"urlList":[]}}